# xmcd
#
# Track frame offsets:
#	150
#	17696
#	39619
#	60991
#	78400
#	95243
#	115554
#	137741
#	156522
#	174906
#
# Disc length: 2526 seconds
#
# Revision: 1
# Processed by: cddbd v1.5.2PL0 Copyright (c) Steve Scherf et al.
# Submitted via: audiograbber 1.83.01
#
DISCID=7909dc0a
DTITLE=John Mayall - Nobody Told Me
DYEAR=2019
DGENRE=Blues
TTITLE0=What Have I Done Wrong (feat. Joe Bonamassa)
TTITLE1=The Moon is Full (feat. Larry McCray)
TTITLE2=Evil and Here to Stay (feat. Alex Lifeson)
TTITLE3=That's What Love Will Make You Do (feat. Todd Rundgren)
TTITLE4=Distant Lonesome Train (feat. Carolyn Wonderland)
TTITLE5=Delta Hurricane (feat. Joe Bonamassa)
TTITLE6=The Hurt Inside (feat. Larry McCray)
TTITLE7=John Mayall - It's So Tough feat. Steven Van Zandt
TTITLE8=Like it Like You Do (feat. Carolyn Wonderland)
TTITLE9=Nobody Told Me (feat. Carolyn Wonderland)
EXTD=
EXTT0=
EXTT1=
EXTT2=
EXTT3=
EXTT4=
EXTT5=
EXTT6=
EXTT7=
EXTT8=
EXTT9=
PLAYORDER=
